<svg width="59" height="39" viewBox="0 0 59 39" fill="none" xmlns="http://www.w3.org/2000/svg">
<path d="M4.728 27.72C4.728 27.64 4.768 27.6 4.848 27.6H5.46C5.54 27.6 5.58 27.64 5.58 27.72V35.88C5.58 35.96 5.54 36 5.46 36H4.848C4.768 36 4.728 35.96 4.728 35.88V35.376C4.728 35.36 4.72 35.352 4.704 35.352C4.696 35.344 4.684 35.348 4.668 35.364C4.492 35.596 4.272 35.776 4.008 35.904C3.752 36.032 3.464 36.096 3.144 36.096C2.584 36.096 2.112 35.952 1.728 35.664C1.352 35.376 1.092 34.984 0.948 34.488C0.836 34.128 0.78 33.62 0.78 32.964C0.78 32.3 0.828 31.804 0.924 31.476C1.068 30.964 1.332 30.564 1.716 30.276C2.1 29.98 2.576 29.832 3.144 29.832C3.456 29.832 3.744 29.896 4.008 30.024C4.272 30.144 4.492 30.32 4.668 30.552C4.684 30.568 4.696 30.576 4.704 30.576C4.72 30.568 4.728 30.556 4.728 30.54V27.72ZM4.512 34.428C4.584 34.268 4.636 34.08 4.668 33.864C4.7 33.648 4.716 33.348 4.716 32.964C4.716 32.58 4.7 32.28 4.668 32.064C4.636 31.84 4.58 31.644 4.5 31.476C4.404 31.204 4.244 30.988 4.02 30.828C3.804 30.66 3.544 30.576 3.24 30.576C2.92 30.576 2.644 30.656 2.412 30.816C2.18 30.976 2.012 31.188 1.908 31.452C1.812 31.628 1.74 31.828 1.692 32.052C1.652 32.268 1.632 32.572 1.632 32.964C1.632 33.34 1.648 33.636 1.68 33.852C1.712 34.06 1.768 34.248 1.848 34.416C1.944 34.704 2.112 34.932 2.352 35.1C2.6 35.268 2.892 35.352 3.228 35.352C3.548 35.352 3.816 35.268 4.032 35.1C4.248 34.932 4.408 34.708 4.512 34.428ZM12.1668 31.944C12.1988 32.168 12.2148 32.448 12.2148 32.784V33.168C12.2148 33.248 12.1748 33.288 12.0948 33.288H8.21878C8.18678 33.288 8.17078 33.304 8.17078 33.336C8.18678 33.776 8.21078 34.06 8.24278 34.188C8.33078 34.548 8.51878 34.832 8.80678 35.04C9.09478 35.248 9.46278 35.352 9.91078 35.352C10.2468 35.352 10.5428 35.276 10.7988 35.124C11.0548 34.972 11.2548 34.756 11.3988 34.476C11.4468 34.404 11.5028 34.388 11.5668 34.428L12.0348 34.704C12.0988 34.744 12.1148 34.8 12.0828 34.872C11.8828 35.256 11.5828 35.56 11.1828 35.784C10.7828 36 10.3228 36.108 9.80278 36.108C9.23478 36.1 8.75878 35.964 8.37478 35.7C7.99078 35.436 7.71478 35.068 7.54678 34.596C7.40278 34.212 7.33078 33.66 7.33078 32.94C7.33078 32.604 7.33478 32.332 7.34278 32.124C7.35878 31.908 7.39078 31.716 7.43878 31.548C7.57478 31.028 7.84678 30.612 8.25478 30.3C8.67078 29.988 9.17078 29.832 9.75478 29.832C10.4828 29.832 11.0428 30.016 11.4348 30.384C11.8268 30.752 12.0708 31.272 12.1668 31.944ZM9.75478 30.576C9.36278 30.576 9.03478 30.68 8.77078 30.888C8.51478 31.088 8.34678 31.36 8.26678 31.704C8.21878 31.872 8.18678 32.144 8.17078 32.52C8.17078 32.552 8.18678 32.568 8.21878 32.568H11.3268C11.3588 32.568 11.3748 32.552 11.3748 32.52C11.3588 32.16 11.3348 31.904 11.3028 31.752C11.2148 31.392 11.0348 31.108 10.7628 30.9C10.4988 30.684 10.1628 30.576 9.75478 30.576ZM15.3049 36C15.2329 36 15.1849 35.968 15.1609 35.904L13.1929 30.06L13.1809 30.012C13.1809 29.956 13.2169 29.928 13.2889 29.928H13.9729C14.0449 29.928 14.0929 29.96 14.1169 30.024L15.6169 34.728C15.6249 34.744 15.6369 34.752 15.6529 34.752C15.6689 34.752 15.6809 34.744 15.6889 34.728L17.1889 30.024C17.2129 29.96 17.2609 29.928 17.3329 29.928L18.0169 29.94C18.1049 29.94 18.1369 29.984 18.1129 30.072L16.1449 35.904C16.1209 35.968 16.0729 36 16.0009 36H15.3049ZM23.909 31.944C23.941 32.168 23.957 32.448 23.957 32.784V33.168C23.957 33.248 23.917 33.288 23.837 33.288H19.961C19.929 33.288 19.913 33.304 19.913 33.336C19.929 33.776 19.953 34.06 19.985 34.188C20.073 34.548 20.261 34.832 20.549 35.04C20.837 35.248 21.205 35.352 21.653 35.352C21.989 35.352 22.285 35.276 22.541 35.124C22.797 34.972 22.997 34.756 23.141 34.476C23.189 34.404 23.245 34.388 23.309 34.428L23.777 34.704C23.841 34.744 23.857 34.8 23.825 34.872C23.625 35.256 23.325 35.56 22.925 35.784C22.525 36 22.065 36.108 21.545 36.108C20.977 36.1 20.501 35.964 20.117 35.7C19.733 35.436 19.457 35.068 19.289 34.596C19.145 34.212 19.073 33.66 19.073 32.94C19.073 32.604 19.077 32.332 19.085 32.124C19.101 31.908 19.133 31.716 19.181 31.548C19.317 31.028 19.589 30.612 19.997 30.3C20.413 29.988 20.913 29.832 21.497 29.832C22.225 29.832 22.785 30.016 23.177 30.384C23.569 30.752 23.813 31.272 23.909 31.944ZM21.497 30.576C21.105 30.576 20.777 30.68 20.513 30.888C20.257 31.088 20.089 31.36 20.009 31.704C19.961 31.872 19.929 32.144 19.913 32.52C19.913 32.552 19.929 32.568 19.961 32.568H23.069C23.101 32.568 23.117 32.552 23.117 32.52C23.101 32.16 23.077 31.904 23.045 31.752C22.957 31.392 22.777 31.108 22.505 30.9C22.241 30.684 21.905 30.576 21.497 30.576ZM25.7714 36C25.6914 36 25.6514 35.96 25.6514 35.88V27.72C25.6514 27.64 25.6914 27.6 25.7714 27.6H26.3834C26.4634 27.6 26.5034 27.64 26.5034 27.72V35.88C26.5034 35.96 26.4634 36 26.3834 36H25.7714ZM30.733 36.096C30.157 36.096 29.661 35.948 29.245 35.652C28.829 35.356 28.541 34.948 28.381 34.428C28.269 34.06 28.213 33.568 28.213 32.952C28.213 32.336 28.269 31.848 28.381 31.488C28.533 30.976 28.817 30.572 29.233 30.276C29.649 29.98 30.153 29.832 30.745 29.832C31.313 29.832 31.801 29.98 32.209 30.276C32.625 30.572 32.909 30.972 33.061 31.476C33.173 31.82 33.229 32.312 33.229 32.952C33.229 33.6 33.173 34.092 33.061 34.428C32.909 34.948 32.625 35.356 32.209 35.652C31.801 35.948 31.309 36.096 30.733 36.096ZM30.733 35.352C31.117 35.352 31.445 35.248 31.717 35.04C31.989 34.824 32.173 34.536 32.269 34.176C32.341 33.888 32.377 33.484 32.377 32.964C32.377 32.436 32.345 32.032 32.281 31.752C32.185 31.392 31.997 31.108 31.717 30.9C31.445 30.684 31.113 30.576 30.721 30.576C30.329 30.576 29.997 30.684 29.725 30.9C29.453 31.108 29.269 31.392 29.173 31.752C29.109 32.032 29.077 32.436 29.077 32.964C29.077 33.492 29.109 33.896 29.173 34.176C29.261 34.536 29.441 34.824 29.713 35.04C29.993 35.248 30.333 35.352 30.733 35.352Z" fill="#575C63"/>
<path d="M40.3321 31.524C40.4601 31.956 40.5241 32.42 40.5241 32.916C40.5241 33.484 40.4401 33.988 40.2721 34.428C40.0881 34.924 39.7921 35.328 39.3841 35.64C38.9841 35.944 38.4961 36.096 37.9201 36.096C37.3441 36.096 36.9081 35.908 36.6121 35.532C36.5961 35.508 36.5801 35.5 36.5641 35.508C36.5481 35.516 36.5401 35.532 36.5401 35.556V38.052C36.5401 38.092 36.5241 38.124 36.4921 38.148C36.4681 38.18 36.4361 38.196 36.3961 38.196H34.6921C34.6521 38.196 34.6161 38.18 34.5841 38.148C34.5601 38.124 34.5481 38.092 34.5481 38.052V29.94C34.5481 29.9 34.5601 29.868 34.5841 29.844C34.6161 29.812 34.6521 29.796 34.6921 29.796H36.3961C36.4361 29.796 36.4681 29.812 36.4921 29.844C36.5241 29.868 36.5401 29.9 36.5401 29.94V30.336C36.5401 30.36 36.5481 30.376 36.5641 30.384C36.5801 30.384 36.5961 30.376 36.6121 30.36C36.9321 29.92 37.3921 29.7 37.9921 29.7C38.5361 29.7 39.0161 29.864 39.4321 30.192C39.8481 30.512 40.1481 30.956 40.3321 31.524ZM38.2081 33.96C38.3681 33.688 38.4481 33.328 38.4481 32.88C38.4481 32.448 38.3761 32.108 38.2321 31.86C38.0641 31.556 37.8121 31.404 37.4761 31.404C37.1561 31.404 36.9121 31.556 36.7441 31.86C36.6081 32.132 36.5401 32.476 36.5401 32.892C36.5401 33.34 36.6161 33.7 36.7681 33.972C36.9361 34.252 37.1721 34.392 37.4761 34.392C37.8041 34.392 38.0481 34.248 38.2081 33.96ZM47.127 32.352C47.167 32.592 47.179 32.908 47.163 33.3C47.155 33.396 47.103 33.444 47.007 33.444H43.347C43.331 33.444 43.315 33.452 43.299 33.468C43.283 33.476 43.279 33.488 43.287 33.504C43.303 33.592 43.343 33.708 43.407 33.852C43.503 34.02 43.647 34.156 43.839 34.26C44.031 34.364 44.267 34.416 44.547 34.416C45.051 34.416 45.447 34.252 45.735 33.924C45.767 33.884 45.803 33.864 45.843 33.864C45.883 33.864 45.915 33.88 45.939 33.912L46.863 34.968C46.895 34.992 46.911 35.024 46.911 35.064C46.911 35.096 46.895 35.128 46.863 35.16C46.583 35.464 46.235 35.696 45.819 35.856C45.411 36.016 44.963 36.096 44.475 36.096C43.747 36.096 43.127 35.94 42.615 35.628C42.111 35.308 41.747 34.864 41.523 34.296C41.355 33.896 41.271 33.396 41.271 32.796C41.271 32.38 41.335 31.98 41.463 31.596C41.671 31.004 42.011 30.54 42.483 30.204C42.963 29.86 43.531 29.688 44.187 29.688C44.715 29.688 45.187 29.804 45.603 30.036C46.019 30.26 46.355 30.576 46.611 30.984C46.875 31.384 47.047 31.84 47.127 32.352ZM44.187 31.404C43.771 31.404 43.495 31.6 43.359 31.992C43.327 32.08 43.307 32.164 43.299 32.244C43.283 32.284 43.299 32.304 43.347 32.304H45.051C45.083 32.304 45.099 32.288 45.099 32.256C45.099 32.192 45.083 32.112 45.051 32.016C44.995 31.816 44.891 31.664 44.739 31.56C44.595 31.456 44.411 31.404 44.187 31.404ZM51.6523 31.248C51.6523 31.288 51.6363 31.324 51.6043 31.356C51.5803 31.38 51.5483 31.392 51.5083 31.392H50.4163C50.3763 31.392 50.3563 31.412 50.3563 31.452V33.636C50.3563 34.092 50.5403 34.32 50.9083 34.32H51.3523C51.3923 34.32 51.4243 34.336 51.4483 34.368C51.4803 34.392 51.4963 34.424 51.4963 34.464V35.856C51.4963 35.944 51.4483 35.996 51.3523 36.012C50.9683 36.028 50.6883 36.036 50.5123 36.036C49.8163 36.036 49.3003 35.928 48.9643 35.712C48.6283 35.488 48.4563 35.068 48.4483 34.452V31.452C48.4483 31.412 48.4283 31.392 48.3883 31.392H47.7043C47.6643 31.392 47.6283 31.38 47.5963 31.356C47.5723 31.324 47.5603 31.288 47.5603 31.248V29.94C47.5603 29.9 47.5723 29.868 47.5963 29.844C47.6283 29.812 47.6643 29.796 47.7043 29.796H48.3883C48.4283 29.796 48.4483 29.776 48.4483 29.736V28.284C48.4483 28.244 48.4603 28.212 48.4843 28.188C48.5163 28.156 48.5523 28.14 48.5923 28.14H50.2123C50.2523 28.14 50.2843 28.156 50.3083 28.188C50.3403 28.212 50.3563 28.244 50.3563 28.284V29.736C50.3563 29.776 50.3763 29.796 50.4163 29.796H51.5083C51.5483 29.796 51.5803 29.812 51.6043 29.844C51.6363 29.868 51.6523 29.9 51.6523 29.94V31.248ZM55.0932 36.096C54.5252 36.096 54.0292 36.02 53.6052 35.868C53.1812 35.708 52.8532 35.488 52.6212 35.208C52.3972 34.92 52.2852 34.592 52.2852 34.224V34.092C52.2852 34.052 52.2972 34.02 52.3212 33.996C52.3532 33.964 52.3892 33.948 52.4292 33.948H54.0492C54.0892 33.948 54.1212 33.964 54.1452 33.996C54.1772 34.02 54.1932 34.052 54.1932 34.092C54.1932 34.244 54.2772 34.372 54.4452 34.476C54.6132 34.572 54.8252 34.62 55.0812 34.62C55.3052 34.62 55.4812 34.584 55.6092 34.512C55.7452 34.432 55.8132 34.328 55.8132 34.2C55.8132 34.072 55.7412 33.98 55.5972 33.924C55.4612 33.86 55.2372 33.8 54.9252 33.744C54.4212 33.648 54.0132 33.532 53.7012 33.396C53.2932 33.228 52.9692 33.02 52.7292 32.772C52.4892 32.516 52.3692 32.168 52.3692 31.728C52.3692 31.104 52.6092 30.612 53.0892 30.252C53.5772 29.884 54.2172 29.7 55.0092 29.7C55.5452 29.7 56.0132 29.788 56.4132 29.964C56.8212 30.132 57.1372 30.372 57.3612 30.684C57.5852 30.996 57.6972 31.356 57.6972 31.764C57.6972 31.804 57.6812 31.84 57.6492 31.872C57.6252 31.896 57.5932 31.908 57.5532 31.908H55.9812C55.9412 31.908 55.9052 31.896 55.8732 31.872C55.8492 31.84 55.8372 31.804 55.8372 31.764C55.8372 31.612 55.7652 31.488 55.6212 31.392C55.4772 31.296 55.2812 31.248 55.0332 31.248C54.8092 31.248 54.6252 31.288 54.4812 31.368C54.3452 31.44 54.2772 31.544 54.2772 31.68C54.2772 31.816 54.3532 31.916 54.5052 31.98C54.6572 32.036 54.9132 32.1 55.2732 32.172C55.7372 32.268 56.0612 32.344 56.2452 32.4C56.7412 32.56 57.1252 32.776 57.3972 33.048C57.6772 33.32 57.8172 33.684 57.8172 34.14C57.8172 34.764 57.5692 35.248 57.0732 35.592C56.5852 35.928 55.9252 36.096 55.0932 36.096Z" fill="#F38536"/>
<path d="M42.8378 6.2102C41.9467 4.70996 40.6948 3.28289 39.8496 2.53422C38.0044 0.899445 36.4653 0.939257 35.7118 1.10857C35.3953 1.17972 35.1046 1.29702 34.8487 1.45348C33.5341 0.477914 31.9348 0 30 0C28.0651 0 26.4658 0.477914 25.1512 1.45354C24.8953 1.29708 24.6047 1.17972 24.2882 1.10862C23.5349 0.939366 21.9956 0.8995 20.1505 2.53422C19.3052 3.28294 18.0534 4.71001 17.1622 6.21025C15.9557 8.2414 15.687 9.88448 16.3635 11.094C17.1895 12.5707 18.4423 12.9486 19.4538 13.0418C19.2052 14.0073 19.0517 15.0402 19.0517 16.3272C19.0517 18.033 19.44 19.5006 20.2059 20.6892C20.8791 21.7342 21.8484 22.5709 23.0867 23.1763C25.3747 24.2947 28.1281 24.424 30 24.424C31.872 24.424 34.6254 24.2947 36.9134 23.1763C38.1516 22.5709 39.121 21.7342 39.7942 20.6892C40.5601 19.5006 40.9484 18.033 40.9484 16.3272C40.9484 15.0403 40.7949 14.0074 40.5463 13.0418C41.5577 12.9486 42.8107 12.5706 43.6366 11.094C44.313 9.88454 44.0442 8.2414 42.8378 6.2102ZM19.9855 11.3538C19.0904 11.3303 18.3625 11.157 17.8593 10.2574C17.518 9.64703 17.801 8.49094 18.6359 7.08542C19.4283 5.75143 20.5656 4.4561 21.287 3.81697C22.4784 2.76128 23.3716 2.70315 23.7918 2.75942C22.5413 4.28389 21.7748 6.2651 21.1338 8.19136C20.8683 8.98903 20.6125 9.67005 20.365 10.3288C20.2326 10.6812 20.1053 11.0201 19.9855 11.3538ZM28.8819 16.9729C28.4386 16.5298 28.2065 16.0646 28.2065 15.8342C28.2065 15.6284 28.2418 15.6136 28.3729 15.5584C28.7466 15.4012 29.4805 15.383 30 15.383C30.5195 15.383 31.2534 15.4012 31.6271 15.5584C31.7582 15.6135 31.7935 15.6284 31.7935 15.8342C31.7935 16.0646 31.5615 16.5297 31.1181 16.9729C30.6821 17.4087 30.2166 17.6438 29.9999 17.6438C29.7833 17.6438 29.3179 17.4087 28.8819 16.9729ZM36.1607 21.6365C34.8454 22.2794 33.1043 22.6281 30.8569 22.6972V19.1865C31.5298 18.9269 32.0778 18.4369 32.3297 18.1852C32.6838 17.8313 33.5074 16.8937 33.5074 15.8342C33.5074 14.9675 33.0757 14.3085 32.2918 13.9787C31.7693 13.7589 31.1053 13.6692 30 13.6692C28.8948 13.6692 28.2308 13.7589 27.7083 13.9787C26.9244 14.3085 26.4927 14.9674 26.4927 15.8342C26.4927 16.8937 27.3163 17.8312 27.6704 18.1852C27.9223 18.4369 28.4703 18.9269 29.1431 19.1865V22.6972C26.8958 22.6281 25.1546 22.2795 23.8393 21.6365C21.771 20.6255 20.7655 18.8888 20.7655 16.3272C20.7655 14.1357 21.2705 12.7917 21.9693 10.9315C22.2106 10.2892 22.4841 9.56117 22.7599 8.73249C24.2747 4.18053 25.8772 1.71385 30 1.71385C34.1228 1.71385 35.7253 4.18058 37.2401 8.73249C37.5158 9.56123 37.7893 10.2892 38.0306 10.9315C38.7295 12.7917 39.2345 14.1357 39.2345 16.3272C39.2345 18.8888 38.229 20.6255 36.1607 21.6365ZM42.1408 10.2574C41.6375 11.1571 40.9096 11.3302 40.0145 11.3538C39.8946 11.0201 39.7674 10.6812 39.6351 10.3288C39.3876 9.67011 39.1318 8.98903 38.8663 8.19136C38.2253 6.2651 37.4588 4.28389 36.2083 2.75942C36.6285 2.70326 37.5217 2.76128 38.7132 3.81702C39.4346 4.45604 40.5719 5.75132 41.3643 7.08531C42.1991 8.49094 42.4821 9.64709 42.1408 10.2574Z" fill="#F38536"/>
<path d="M27.1482 9.1088C26.5282 9.1088 26.0236 9.61854 26.0236 10.2479C26.0236 10.8773 26.5281 11.3875 27.1482 11.3875C27.769 11.3875 28.2735 10.8772 28.2735 10.2479C28.2735 9.61854 27.769 9.1088 27.1482 9.1088Z" fill="#F38536"/>
<path d="M32.8434 9.09988C32.2174 9.09988 31.7096 9.61389 31.7096 10.2479C31.7096 10.882 32.2174 11.396 32.8434 11.396C33.4687 11.396 33.9765 10.882 33.9765 10.2479C33.9765 9.61389 33.4687 9.09988 32.8434 9.09988Z" fill="#F38536"/>
</svg>
